<?xml version="1.0" encoding="utf-8"?>
<?xml-stylesheet type="text/xsl" href="rss1.xsl"?>
<rss version="2.0" xmlns:atom="http://www.w3.org/2005/Atom" xmlns:content="http://purl.org/rss/1.0/modules/content/" xmlns:dc="http://purl.org/dc/elements/1.1/" xmlns:media="http://search.yahoo.com/mrss/">
<channel>
 <title>Getty</title>
 <link>http://www.gettyimg.com/</link>
 <atom:link href="http://www.gettyimg.com/" rel="self" type="application/rss+xml" />

 
                <item>
                <title><![CDATA[【HD Live Performances】HDTV - CNN New Year's Eve Live with Anderson Cooper &amp; Andy Cohen 2024 [FULL]HDTV MPEG2 1080i DD5.1-ilya2129]]></title>
                <link><![CDATA[https://sharemania.us/threads/cnn-new-years-eve-live-with-anderson-cooper-andy-cohen-2024-full-hdtv-mpeg2-1080i-dd5-1-ilya2129.235067/]]></link>
                <description><![CDATA[<article>
<blockquote class="messageText SelectQuoteContainer ugc baseHtml">
<div style="text-align: center"><img src="https://i122.fastpic.org/big/2024/0101/2b/3716c9cd907fd23d2324809d65599e2b.png?r=1" class="bbCodeImage LbImage" alt="[​IMG]" data-url="https://i122.fastpic.org/big/2024/0101/2b/3716c9cd907fd23d2324809d65599e2b.png?r=1" style=""><br>
<br>
<a href="https://postimg.cc/QHZFCFwP" target="_blank" class="externalLink" rel="nofollow"><img src="https://i.postimg.cc/QHZFCFwP/vlcsnap-2024-01-01-19h11m07s594.png" class="bbCodeImage LbImage" alt="[​IMG]" data-url="https://i.postimg.cc/QHZFCFwP/vlcsnap-2024-01-01-19h11m07s594.png"></a> <a href="https://postimg.cc/KKWz2jt0" target="_blank" class="externalLink" rel="nofollow"><img src="https://i.postimg.cc/KKWz2jt0/vlcsnap-2024-01-01-19h11m09s303.png" class="bbCodeImage LbImage" alt="[​IMG]" data-url="https://i.postimg.cc/KKWz2jt0/vlcsnap-2024-01-01-19h11m09s303.png"></a> <a href="https://postimg.cc/f3yLpmS3" target="_blank" class="externalLink" rel="nofollow"><img src="https://i.postimg.cc/f3yLpmS3/vlcsnap-2024-01-01-19h11m18s550.png" class="bbCodeImage LbImage" alt="[​IMG]" data-url="https://i.postimg.cc/f3yLpmS3/vlcsnap-2024-01-01-19h11m18s550.png"></a> <a href="https://postimg.cc/rKGKr8Lp" target="_blank" class="externalLink" rel="nofollow"><img src="https://i.postimg.cc/rKGKr8Lp/vlcsnap-2024-01-01-19h17m28s734.png" class="bbCodeImage LbImage" alt="[​IMG]" data-url="https://i.postimg.cc/rKGKr8Lp/vlcsnap-2024-01-01-19h17m28s734.png"></a> <a href="https://postimg.cc/ZWVnwVnt" target="_blank" class="externalLink" rel="nofollow"><img src="https://i.postimg.cc/ZWVnwVnt/vlcsnap-2024-01-01-19h17m30s727.png" class="bbCodeImage LbImage" alt="[​IMG]" data-url="https://i.postimg.cc/ZWVnwVnt/vlcsnap-2024-01-01-19h17m30s727.png"></a> <a href="https://postimg.cc/fVwk76wf" target="_blank" class="externalLink" rel="nofollow"><img src="https://i.postimg.cc/fVwk76wf/vlcsnap-2024-01-01-19h17m34s501.png" class="bbCodeImage LbImage" alt="[​IMG]" data-url="https://i.postimg.cc/fVwk76wf/vlcsnap-2024-01-01-19h17m34s501.png"></a> <br>
<br>
Rod Stewart - Some Guys Have All The Luck<br>
Darius Rucker - Beers And Sunshine<br>
Miranda Lambert - Little Red Wagon<br>
Enrique Iglesias - I Like It<br>
Maroon 5 - This Love<br>
Paul Anka - Imagine<br>
Jonas Brothers - Strong Enough<br>
Enrique Iglesias - Bailando<br>
Miranda Lambert - Drunk<br>
Jonas Brothers - Sucker<br>
Darius Rucker - Hold My Hand<br>
Ceelo Green - I'll Be Around<br>
Rod Stewart - It Takes Two<br>
​</div><br>
<div class="bbCodeBlock bbCodeCode">
<div class="type">Code:</div>
<pre>General
Unique ID                                : 9105568051363174060646682734548351036 (0x6D9AB2A7D21DE6F05E5589B6251F83C)
Complete name                            : F:\CNN New Year's Eve Live with Anderson Cooper &amp; Andy Cohen 2024 HDTV MPEG2 1080i DD5.1-ilya2129.mkv
Format                                   : Matroska
Format version                           : Version 4
File size                                : 29.7 GiB
Duration                                 : 4 h 50 min
Overall bit rate mode                    : Variable
Overall bit rate                         : 14.7 Mb/s
Frame rate                               : 29.970 FPS
Encoded date                             : 2024-01-01 15:04:43 UTC
Writing application                      : mkvmerge v72.0.0 ('Minuano (Six-eight)') 64-bit
Writing library                          : libebml v1.4.4 + libmatroska v1.7.1

Video
ID                                       : 1
Format                                   : MPEG Video
Format version                           : Version 2
Format profile                           : Main@High
Format settings                          : CustomMatrix / BVOP
Format settings, BVOP                    : Yes
Format settings, Matrix                  : Custom
Format settings, GOP                     : Variable
Format settings, picture structure       : Frame
Codec ID                                 : V_MPEG2
Codec ID/Info                            : MPEG 1 or 2 Video
Duration                                 : 4 h 50 min
Bit rate mode                            : Variable
Bit rate                                 : 14.3 Mb/s
Maximum bit rate                         : 14.7 Mb/s
Width                                    : 1 920 pixels
Height                                   : 1 080 pixels
Display aspect ratio                     : 16:9
Active Format Description                : Full frame 16:9 image
Frame rate mode                          : Constant
Frame rate                               : 29.970 (30000/1001) FPS
Color space                              : YUV
Chroma subsampling                       : 4:2:0
Bit depth                                : 8 bits
Scan type                                : Interlaced
Scan order                               : Top Field First
Compression mode                         : Lossy
Bits/(Pixel*Frame)                       : 0.230
Time code of first frame                 : 14:42:34;07
Time code source                         : Group of pictures header
Stream size                              : 28.9 GiB (97%)
Default                                  : Yes
Forced                                   : No

Audio
ID                                       : 2
Format                                   : AC-3
Format/Info                              : Audio Coding 3
Commercial name                          : Dolby Digital
Codec ID                                 : A_AC3
Duration                                 : 4 h 50 min
Bit rate mode                            : Constant
Bit rate                                 : 384 kb/s
Channel(s)                               : 6 channels
Channel layout                           : L R C LFE Ls Rs
Sampling rate                            : 48.0 kHz
Frame rate                               : 31.250 FPS (1536 SPF)
Compression mode                         : Lossy
Delay relative to video                  : 23 ms
Stream size                              : 797 MiB (3%)
Language                                 : English
Service kind                             : Complete Main
Default                                  : Yes
Forced                                   : No
</pre>
</div><div style="text-align: center">
<div class="bbCodeBlock bbCodeVfcHH HiddenContent">
<div class="attribution type">Hidden Content:</div>
<blockquote>You must reply before you can see the hidden data contained here.</blockquote>
</div></div>
<div class="messageTextEndMarker">&nbsp;</div>
</blockquote>
</article>]]></description>
                <author><![CDATA[ilya2129]]></author>
                </item>

                </channel></rss>